<mxfile host="app.diagrams.net" modified="2023-08-17T20:42:37.859Z" agent="Mozilla/5.0 (X11; Linux x86_64; rv:109.0) Gecko/20100101 Firefox/116.0" etag="SonSV7AkLyDCeKYrUfJp" version="21.6.6" type="device">
  <diagram name="Page-1" id="KYzCUh0ewO7-smIGz0PE">
    <mxGraphModel dx="1697" dy="936" grid="1" gridSize="10" guides="1" tooltips="1" connect="1" arrows="1" fold="1" page="1" pageScale="1" pageWidth="1600" pageHeight="900" math="0" shadow="0">
      <root>
        <mxCell id="0" />
        <mxCell id="1" parent="0" />
        <mxCell id="ansAu0NAYJkSnvoeIC07-1" value="" style="triangle;whiteSpace=wrap;html=1;rotation=-90;fillColor=#dae8fc;strokeColor=#6c8ebf;" vertex="1" parent="1">
          <mxGeometry x="730.92" y="199.63" width="133.33" height="224.93" as="geometry" />
        </mxCell>
        <mxCell id="ansAu0NAYJkSnvoeIC07-3" value="" style="shape=trapezoid;perimeter=trapezoidPerimeter;whiteSpace=wrap;html=1;fixedSize=1;size=62.110000000000355;fillColor=#e1d5e7;strokeColor=#9673a6;" vertex="1" parent="1">
          <mxGeometry x="617.89" y="390" width="360" height="70" as="geometry" />
        </mxCell>
        <mxCell id="ansAu0NAYJkSnvoeIC07-4" value="" style="shape=trapezoid;perimeter=trapezoidPerimeter;whiteSpace=wrap;html=1;fixedSize=1;size=62.11999999999989;fillColor=#d5e8d4;strokeColor=#82b366;" vertex="1" parent="1">
          <mxGeometry x="550" y="470" width="500" height="70" as="geometry" />
        </mxCell>
        <mxCell id="ansAu0NAYJkSnvoeIC07-6" value="Texto Limpio" style="text;html=1;strokeColor=none;fillColor=none;align=center;verticalAlign=middle;whiteSpace=wrap;rounded=0;fontStyle=1;fontFamily=Computer Modern;fontSource=https%3A%2F%2Ffonts.googleapis.com%2Fcss%3Ffamily%3DComputer%2BModern;" vertex="1" parent="1">
          <mxGeometry x="741.2600000000001" y="470" width="113.25" height="30" as="geometry" />
        </mxCell>
        <mxCell id="ansAu0NAYJkSnvoeIC07-7" value="Sin signos de puntuación" style="text;html=1;strokeColor=none;fillColor=none;align=center;verticalAlign=middle;whiteSpace=wrap;rounded=0;fontStyle=1;fontFamily=Computer Modern;fontSource=https%3A%2F%2Ffonts.googleapis.com%2Fcss%3Ffamily%3DComputer%2BModern;" vertex="1" parent="1">
          <mxGeometry x="719.27" y="390" width="161.63" height="30" as="geometry" />
        </mxCell>
        <mxCell id="ansAu0NAYJkSnvoeIC07-8" value="Sin palabras vacías" style="text;html=1;strokeColor=none;fillColor=none;align=center;verticalAlign=middle;whiteSpace=wrap;rounded=0;fontStyle=1;fontFamily=Computer Modern;fontSource=https%3A%2F%2Ffonts.googleapis.com%2Fcss%3Ffamily%3DComputer%2BModern;" vertex="1" parent="1">
          <mxGeometry x="749.0000000000001" y="300" width="101.63" height="30" as="geometry" />
        </mxCell>
        <mxCell id="ansAu0NAYJkSnvoeIC07-9" value="Eliminación de las palabras vacías del nivel anterior" style="text;html=1;strokeColor=none;fillColor=none;align=center;verticalAlign=middle;whiteSpace=wrap;rounded=0;fontSize=10;fontFamily=Computer Modern;fontSource=https%3A%2F%2Ffonts.googleapis.com%2Fcss%3Ffamily%3DComputer%2BModern;" vertex="1" parent="1">
          <mxGeometry x="724.7299999999999" y="340" width="146.32" height="30" as="geometry" />
        </mxCell>
        <mxCell id="ansAu0NAYJkSnvoeIC07-10" value="Eliminación de los signos de puntuación del nivel anterior" style="text;html=1;strokeColor=none;fillColor=none;align=center;verticalAlign=middle;whiteSpace=wrap;rounded=0;fontSize=10;fontFamily=Computer Modern;fontSource=https%3A%2F%2Ffonts.googleapis.com%2Fcss%3Ffamily%3DComputer%2BModern;" vertex="1" parent="1">
          <mxGeometry x="698.8" y="420" width="198.16" height="30" as="geometry" />
        </mxCell>
        <mxCell id="ansAu0NAYJkSnvoeIC07-11" value="Sustitución de las menciones, los enlaces y los &lt;i&gt;hashtags&lt;/i&gt; por etiquetas específicas: &lt;i&gt;@MENTION, HHTPURL y #HASHTAG&lt;/i&gt;,&amp;nbsp; respectivamente" style="text;html=1;strokeColor=none;fillColor=none;align=center;verticalAlign=middle;whiteSpace=wrap;rounded=0;fontSize=10;fontFamily=Computer Modern;fontSource=https%3A%2F%2Ffonts.googleapis.com%2Fcss%3Ffamily%3DComputer%2BModern;" vertex="1" parent="1">
          <mxGeometry x="630.8399999999999" y="500" width="334.08" height="30" as="geometry" />
        </mxCell>
      </root>
    </mxGraphModel>
  </diagram>
</mxfile>
